<svg width="25" height="24" viewBox="0 0 25 24" fill="none" xmlns="http://www.w3.org/2000/svg">
<mask id="mask0_116533_15573" style="mask-type:alpha" maskUnits="userSpaceOnUse" x="0" y="0" width="25" height="24">
<rect x="0.142822" width="24" height="24" fill="#D9D9D9"/>
</mask>
<g mask="url(#mask0_116533_15573)">
<path d="M12.1428 22C10.7762 22 9.48449 21.7373 8.26782 21.212C7.05116 20.6873 5.98882 19.9707 5.08082 19.062C4.17216 18.154 3.45549 17.0917 2.93082 15.875C2.40549 14.6583 2.14282 13.3667 2.14282 12C2.14282 10.6167 2.40549 9.321 2.93082 8.113C3.45549 6.90433 4.17216 5.846 5.08082 4.938C5.98882 4.02933 7.05116 3.31233 8.26782 2.787C9.48449 2.26233 10.7762 2 12.1428 2C13.5262 2 14.8218 2.26233 16.0298 2.787C17.2385 3.31233 18.2968 4.02933 19.2048 4.938C20.1135 5.846 20.8302 6.90433 21.3548 8.113C21.8802 9.321 22.1428 10.6167 22.1428 12V13.45C22.1428 14.4333 21.8055 15.2707 21.1308 15.962C20.4555 16.654 19.6262 17 18.6428 17C18.0428 17 17.4845 16.8667 16.9678 16.6C16.4512 16.3333 16.0262 15.9833 15.6928 15.55C15.2428 16 14.7138 16.3543 14.1058 16.613C13.4972 16.871 12.8428 17 12.1428 17C10.7595 17 9.58049 16.5123 8.60582 15.537C7.63049 14.5623 7.14282 13.3833 7.14282 12C7.14282 10.6167 7.63049 9.43733 8.60582 8.462C9.58049 7.48733 10.7595 7 12.1428 7C13.5262 7 14.7055 7.48733 15.6808 8.462C16.6555 9.43733 17.1428 10.6167 17.1428 12V13.45C17.1428 13.9333 17.2928 14.3123 17.5928 14.587C17.8928 14.8623 18.2428 15 18.6428 15C19.0428 15 19.3928 14.8623 19.6928 14.587C19.9928 14.3123 20.1428 13.9333 20.1428 13.45V12C20.1428 9.81667 19.3552 7.93733 17.7798 6.362C16.2052 4.78733 14.3262 4 12.1428 4C9.95949 4 8.08016 4.78733 6.50482 6.362C4.93016 7.93733 4.14282 9.81667 4.14282 12C4.14282 14.1833 4.93016 16.0623 6.50482 17.637C8.08016 19.2123 9.95949 20 12.1428 20H16.1428C16.4262 20 16.6635 20.096 16.8548 20.288C17.0468 20.4793 17.1428 20.7167 17.1428 21C17.1428 21.2833 17.0468 21.5207 16.8548 21.712C16.6635 21.904 16.4262 22 16.1428 22H12.1428ZM12.1428 15C12.9762 15 13.6845 14.7083 14.2678 14.125C14.8512 13.5417 15.1428 12.8333 15.1428 12C15.1428 11.1667 14.8512 10.4583 14.2678 9.875C13.6845 9.29167 12.9762 9 12.1428 9C11.3095 9 10.6012 9.29167 10.0178 9.875C9.43449 10.4583 9.14282 11.1667 9.14282 12C9.14282 12.8333 9.43449 13.5417 10.0178 14.125C10.6012 14.7083 11.3095 15 12.1428 15Z" fill="#686868"/>
</g>
</svg>
