<svg width="41" height="40" viewBox="0 0 41 40" fill="none" xmlns="http://www.w3.org/2000/svg">
<mask id="mask0_116533_15576" style="mask-type:alpha" maskUnits="userSpaceOnUse" x="5" y="5" width="31" height="30">
<rect x="5.14258" y="5" width="30" height="30" fill="#D9D9D9"/>
</mask>
<g mask="url(#mask0_116533_15576)">
<path d="M10.6426 29.2813C10.2259 29.4479 9.83008 29.4113 9.45508 29.1713C9.08008 28.9321 8.89258 28.5833 8.89258 28.125V23.4688C8.89258 23.1771 8.97591 22.9167 9.14258 22.6875C9.30924 22.4583 9.53841 22.3125 9.83008 22.25L18.8926 20L9.83008 17.75C9.53841 17.6875 9.30924 17.5417 9.14258 17.3125C8.97591 17.0833 8.89258 16.8229 8.89258 16.5313V11.875C8.89258 11.4167 9.08008 11.0675 9.45508 10.8275C9.83008 10.5883 10.2259 10.5521 10.6426 10.7188L29.8926 18.8438C30.4134 19.0729 30.6738 19.4583 30.6738 20C30.6738 20.5417 30.4134 20.9271 29.8926 21.1563L10.6426 29.2813Z" fill="#444DF2"/>
</g>
</svg>
