<svg width="25" height="24" viewBox="0 0 25 24" fill="none" xmlns="http://www.w3.org/2000/svg">
<mask id="mask0_116533_15569" style="mask-type:alpha" maskUnits="userSpaceOnUse" x="0" y="0" width="25" height="24">
<rect x="0.142822" width="24" height="24" fill="#D9D9D9"/>
</mask>
<g mask="url(#mask0_116533_15569)">
<path d="M15.6428 11C16.0762 11 16.4345 10.8583 16.7178 10.575C17.0012 10.2917 17.1428 9.93333 17.1428 9.5C17.1428 9.06667 17.0012 8.70833 16.7178 8.425C16.4345 8.14167 16.0762 8 15.6428 8C15.2095 8 14.8512 8.14167 14.5678 8.425C14.2845 8.70833 14.1428 9.06667 14.1428 9.5C14.1428 9.93333 14.2845 10.2917 14.5678 10.575C14.8512 10.8583 15.2095 11 15.6428 11ZM8.64282 11C9.07616 11 9.43449 10.8583 9.71782 10.575C10.0012 10.2917 10.1428 9.93333 10.1428 9.5C10.1428 9.06667 10.0012 8.70833 9.71782 8.425C9.43449 8.14167 9.07616 8 8.64282 8C8.20949 8 7.85116 8.14167 7.56782 8.425C7.28449 8.70833 7.14282 9.06667 7.14282 9.5C7.14282 9.93333 7.28449 10.2917 7.56782 10.575C7.85116 10.8583 8.20949 11 8.64282 11ZM12.1428 17.5C13.0928 17.5 13.9595 17.2877 14.7428 16.863C15.5262 16.4377 16.1345 15.9 16.5678 15.25C16.7678 14.95 16.7972 14.6667 16.6558 14.4C16.5138 14.1333 16.2928 14 15.9928 14C15.8762 14 15.7595 14.0333 15.6428 14.1C15.5262 14.1667 15.4345 14.25 15.3678 14.35C15.0012 14.85 14.5428 15.25 13.9928 15.55C13.4428 15.85 12.8262 16 12.1428 16C11.4595 16 10.8428 15.85 10.2928 15.55C9.74282 15.25 9.28449 14.85 8.91782 14.35C8.85116 14.25 8.75549 14.1667 8.63082 14.1C8.50549 14.0333 8.38449 14 8.26782 14C7.98449 14 7.77216 14.129 7.63082 14.387C7.48882 14.6457 7.50949 14.9167 7.69282 15.2C8.14282 15.8833 8.75949 16.4377 9.54282 16.863C10.3262 17.2877 11.1928 17.5 12.1428 17.5ZM12.1428 22C10.7595 22 9.45949 21.7373 8.24282 21.212C7.02616 20.6873 5.96782 19.975 5.06782 19.075C4.16782 18.175 3.45549 17.1167 2.93082 15.9C2.40549 14.6833 2.14282 13.3833 2.14282 12C2.14282 10.6167 2.40549 9.31667 2.93082 8.1C3.45549 6.88333 4.16782 5.825 5.06782 4.925C5.96782 4.025 7.02616 3.31233 8.24282 2.787C9.45949 2.26233 10.7595 2 12.1428 2C13.5262 2 14.8262 2.26233 16.0428 2.787C17.2595 3.31233 18.3178 4.025 19.2178 4.925C20.1178 5.825 20.8302 6.88333 21.3548 8.1C21.8802 9.31667 22.1428 10.6167 22.1428 12C22.1428 13.3833 21.8802 14.6833 21.3548 15.9C20.8302 17.1167 20.1178 18.175 19.2178 19.075C18.3178 19.975 17.2595 20.6873 16.0428 21.212C14.8262 21.7373 13.5262 22 12.1428 22ZM12.1428 20C14.3595 20 16.2472 19.221 17.8058 17.663C19.3638 16.1043 20.1428 14.2167 20.1428 12C20.1428 9.78333 19.3638 7.89567 17.8058 6.337C16.2472 4.779 14.3595 4 12.1428 4C9.92616 4 8.03882 4.779 6.48082 6.337C4.92216 7.89567 4.14282 9.78333 4.14282 12C4.14282 14.2167 4.92216 16.1043 6.48082 17.663C8.03882 19.221 9.92616 20 12.1428 20Z" fill="#686868"/>
</g>
</svg>
